<svg width="6000" height="6000" viewBox="0 0 6000 6000" fill="none" xmlns="http://www.w3.org/2000/svg">
<rect width="6000" height="6000" fill="url(#paint0_linear_2310_2)"/>
<path d="M1275 2298L1201 2717C1198.33 2734.33 1197 2746.33 1197 2753C1197 2783.67 1205.67 2807.33 1223 2824C1240.33 2840 1266 2848 1300 2848C1340 2848 1372.67 2836.67 1398 2814C1423.33 2791.33 1439.67 2759 1447 2717L1521 2298H1692L1618 2717C1606.67 2780.33 1584 2834 1550 2878C1516.67 2921.33 1475.67 2953.67 1427 2975C1379 2996.33 1326.67 3007 1270 3007C1196.67 3007 1137.33 2988 1092 2950C1047.33 2912 1025 2857 1025 2785C1025 2763.67 1027 2741 1031 2717L1104 2298H1275ZM2307.08 2524C2300.41 2564.67 2284.74 2602 2260.08 2636C2235.41 2669.33 2201.74 2696.33 2159.08 2717C2117.08 2737.67 2067.41 2748 2010.08 2748H1904.08L1859.08 3000H1688.08L1812.08 2298H2089.08C2162.41 2298 2217.74 2314.33 2255.08 2347C2292.41 2379 2311.08 2422.67 2311.08 2478C2311.08 2494.67 2309.74 2510 2307.08 2524ZM2020.08 2614C2084.08 2614 2121.74 2584 2133.08 2524C2134.41 2513.33 2135.08 2505.67 2135.08 2501C2135.08 2479.67 2128.08 2463.33 2114.08 2452C2100.74 2440 2080.08 2434 2052.08 2434H1959.08L1928.08 2614H2020.08ZM2506.1 2870H2730.1L2707.1 3000H2312.1L2436.1 2298H2607.1L2506.1 2870ZM3122.66 3007C3063.33 3007 3011 2994.67 2965.66 2970C2921 2945.33 2886.33 2910.67 2861.66 2866C2837 2821.33 2824.66 2770 2824.66 2712C2824.66 2630 2842.33 2557 2877.66 2493C2913 2428.33 2962 2378 3024.66 2342C3088 2306 3159.66 2288 3239.66 2288C3299.66 2288 3352.33 2300.33 3397.66 2325C3443 2349 3478 2383.33 3502.66 2428C3527.33 2472 3539.66 2522.67 3539.66 2580C3539.66 2662 3522 2735.67 3486.66 2801C3451.33 2865.67 3402 2916.33 3338.66 2953C3275.33 2989 3203.33 3007 3122.66 3007ZM3148.66 2849C3192.66 2849 3231.33 2837.67 3264.66 2815C3298 2792.33 3323.66 2762 3341.66 2724C3360.33 2685.33 3369.66 2643.67 3369.66 2599C3369.66 2551 3356.33 2513.33 3329.66 2486C3303 2458.67 3265.66 2445 3217.66 2445C3173.66 2445 3134.66 2456.33 3100.66 2479C3067.33 2501.67 3041.33 2532 3022.66 2570C3004.66 2607.33 2995.66 2648.67 2995.66 2694C2995.66 2742 3009 2780 3035.66 2808C3062.33 2835.33 3100 2849 3148.66 2849ZM4033.8 2876H3771.8L3707.8 3000H3528.8L3906.8 2298H4104.8L4234.8 3000H4053.8L4033.8 2876ZM4013.8 2746L3972.8 2486L3838.8 2746H4013.8ZM4699.1 2298C4763.77 2298 4819.43 2309.67 4866.1 2333C4913.43 2355.67 4949.43 2388 4974.1 2430C4999.43 2471.33 5012.1 2520 5012.1 2576C5012.1 2595.33 5009.77 2619.67 5005.1 2649C4993.1 2717.67 4967.1 2778.67 4927.1 2832C4887.77 2885.33 4837.43 2926.67 4776.1 2956C4715.43 2985.33 4648.43 3000 4575.1 3000H4312.1L4436.1 2298H4699.1ZM4590.1 2854C4654.77 2854 4708.43 2836 4751.1 2800C4793.77 2764 4820.43 2713.67 4831.1 2649C4834.43 2629 4836.1 2612.33 4836.1 2599C4836.1 2549.67 4821.1 2511.67 4791.1 2485C4761.1 2457.67 4718.43 2444 4663.1 2444H4581.1L4509.1 2854H4590.1Z" fill="white"/>
<path d="M2115 3236L1991 3938H1820L1944 3236H2115ZM2573.92 3814H2311.92L2247.92 3938H2068.92L2446.92 3236H2644.92L2774.92 3938H2593.92L2573.92 3814ZM2553.92 3684L2512.92 3424L2378.92 3684H2553.92ZM3131.23 3945C3055.23 3945 2993.23 3928.67 2945.23 3896C2897.89 3862.67 2874.23 3815.67 2874.23 3755C2874.23 3749 2874.89 3740 2876.23 3728H3054.23C3052.23 3753.33 3058.23 3773.33 3072.23 3788C3086.23 3802.67 3107.56 3810 3136.23 3810C3162.23 3810 3182.56 3804.33 3197.23 3793C3212.56 3781.67 3220.23 3765.67 3220.23 3745C3220.23 3723.67 3210.56 3706.33 3191.23 3693C3172.56 3679.67 3143.23 3664.67 3103.23 3648C3064.56 3632 3032.89 3617 3008.23 3603C2984.23 3588.33 2963.23 3568.67 2945.23 3544C2927.23 3519.33 2918.23 3488.33 2918.23 3451C2917.56 3405 2928.89 3365 2952.23 3331C2975.56 3297 3007.89 3271 3049.23 3253C3090.56 3235 3137.89 3226 3191.23 3226C3239.23 3226 3281.89 3233.67 3319.23 3249C3356.56 3263.67 3385.56 3285.33 3406.23 3314C3426.89 3342 3437.23 3375.33 3437.23 3414C3437.23 3424 3436.89 3431.33 3436.23 3436H3254.23C3254.89 3433.33 3255.23 3429.33 3255.23 3424C3255.23 3405.33 3248.56 3390.33 3235.23 3379C3222.56 3367 3204.89 3361 3182.23 3361C3158.23 3361 3138.56 3367 3123.23 3379C3108.56 3390.33 3101.23 3406 3101.23 3426C3101.23 3446 3110.56 3463 3129.23 3477C3147.89 3490.33 3176.89 3506 3216.23 3524C3255.56 3542 3287.56 3558.67 3312.23 3574C3337.56 3589.33 3359.23 3610 3377.23 3636C3395.23 3661.33 3404.23 3692.67 3404.23 3730C3404.23 3771.33 3393.23 3808.33 3371.23 3841C3349.23 3873.67 3317.56 3899.33 3276.23 3918C3234.89 3936 3186.56 3945 3131.23 3945ZM3861.3 3236C3925.96 3236 3981.63 3247.67 4028.3 3271C4075.63 3293.67 4111.63 3326 4136.3 3368C4161.63 3409.33 4174.3 3458 4174.3 3514C4174.3 3533.33 4171.96 3557.67 4167.3 3587C4155.3 3655.67 4129.3 3716.67 4089.3 3770C4049.96 3823.33 3999.63 3864.67 3938.3 3894C3877.63 3923.33 3810.63 3938 3737.3 3938H3474.3L3598.3 3236H3861.3ZM3752.3 3792C3816.96 3792 3870.63 3774 3913.3 3738C3955.96 3702 3982.63 3651.67 3993.3 3587C3996.63 3567 3998.3 3550.33 3998.3 3537C3998.3 3487.67 3983.3 3449.67 3953.3 3423C3923.3 3395.67 3880.63 3382 3825.3 3382H3743.3L3671.3 3792H3752.3Z" fill="white"/>
<defs>
<linearGradient id="paint0_linear_2310_2" x1="-1.11759e-06" y1="3000" x2="6000" y2="3000" gradientUnits="userSpaceOnUse">
<stop offset="0.185" stop-color="#466FFF"/>
<stop offset="1" stop-color="#2A4299"/>
</linearGradient>
</defs>
</svg>
